<svg width="148" height="34" viewBox="0 0 148 34" fill="none" xmlns="http://www.w3.org/2000/svg">
<path fill-rule="evenodd" clip-rule="evenodd" d="M0.199612 32.1002H8.59961C9.19961 30.8002 9.69961 29.3001 9.69961 27.8001C12.5996 30.8001 19.3996 32.8001 23.4996 32.8001H23.6996C27.9996 32.8001 31.1996 31.7002 33.4996 29.6002C35.7996 27.5002 36.8996 24.5002 36.8996 20.6002V0.400146H34.3996H26.2996H18.9996L28.8996 22.5001L18.2996 18.7001L7.69961 22.5001L17.9996 0.400146H10.7996H5.99961H0.0996094C0.199609 0.400146 0.199612 32.1002 0.199612 32.1002Z" fill="url(#paint0_linear_93_2060)"/>
<path d="M49.4434 26.2368H46.2955L55.4 1.44162H58.4994L67.6039 26.2368H64.4561L57.0466 5.36429H56.8529L49.4434 26.2368ZM50.6056 16.5512H63.2938V19.2147H50.6056V16.5512ZM78.8756 26.6242C77.0837 26.6242 75.5381 26.2287 74.2386 25.4378C72.9471 24.6387 71.9503 23.5248 71.2481 22.0962C70.554 20.6595 70.2069 18.9887 70.2069 17.0839C70.2069 15.1791 70.554 13.5002 71.2481 12.0474C71.9503 10.5865 72.927 9.4484 74.178 8.63319C75.4372 7.80992 76.9061 7.39828 78.585 7.39828C79.5535 7.39828 80.51 7.5597 81.4544 7.88256C82.3987 8.20541 83.2583 8.73005 84.0332 9.45647C84.808 10.1748 85.4255 11.1272 85.8855 12.3137C86.3456 13.5002 86.5756 14.9611 86.5756 16.6965V17.9072H72.2409V15.4373H83.6699C83.6699 14.3881 83.4601 13.4518 83.0404 12.6285C82.6287 11.8052 82.0395 11.1555 81.2727 10.6793C80.514 10.2031 79.6181 9.96497 78.585 9.96497C77.4469 9.96497 76.4622 10.2475 75.6309 10.8125C74.8076 11.3694 74.174 12.0958 73.7301 12.9917C73.2861 13.8876 73.0642 14.8481 73.0642 15.8732V17.5198C73.0642 18.9242 73.3063 20.1147 73.7906 21.0913C74.283 22.0599 74.965 22.7984 75.8367 23.3069C76.7084 23.8073 77.7214 24.0576 78.8756 24.0576C79.6262 24.0576 80.3042 23.9526 80.9095 23.7428C81.523 23.5248 82.0516 23.202 82.4956 22.7742C82.9395 22.3384 83.2825 21.7976 83.5247 21.1519L86.2851 21.9267C85.9945 22.863 85.5062 23.6863 84.8201 24.3965C84.134 25.0988 83.2866 25.6476 82.2776 26.0431C81.2687 26.4305 80.1347 26.6242 78.8756 26.6242ZM98.4768 26.6242C96.798 26.6242 95.325 26.2247 94.0578 25.4256C92.7986 24.6266 91.8139 23.5087 91.1037 22.072C90.4014 20.6353 90.0503 18.9565 90.0503 17.0355C90.0503 15.0983 90.4014 13.4074 91.1037 11.9626C91.8139 10.5179 92.7986 9.39594 94.0578 8.59687C95.325 7.79781 96.798 7.39828 98.4768 7.39828C100.156 7.39828 101.625 7.79781 102.884 8.59687C104.151 9.39594 105.136 10.5179 105.838 11.9626C106.548 13.4074 106.903 15.0983 106.903 17.0355C106.903 18.9565 106.548 20.6353 105.838 22.072C105.136 23.5087 104.151 24.6266 102.884 25.4256C101.625 26.2247 100.156 26.6242 98.4768 26.6242ZM98.4768 24.0576C99.7521 24.0576 100.801 23.7307 101.625 23.0769C102.448 22.4231 103.057 21.5635 103.453 20.4981C103.848 19.4327 104.046 18.2785 104.046 17.0355C104.046 15.7925 103.848 14.6342 103.453 13.5608C103.057 12.4873 102.448 11.6196 101.625 10.9577C100.801 10.2959 99.7521 9.96497 98.4768 9.96497C97.2016 9.96497 96.1523 10.2959 95.329 10.9577C94.5057 11.6196 93.8963 12.4873 93.5008 13.5608C93.1054 14.6342 92.9076 15.7925 92.9076 17.0355C92.9076 18.2785 93.1054 19.4327 93.5008 20.4981C93.8963 21.5635 94.5057 22.4231 95.329 23.0769C96.1523 23.7307 97.2016 24.0576 98.4768 24.0576ZM114.122 15.0499V26.2368H111.265V7.64042H114.025V10.5461H114.267C114.703 9.60176 115.365 8.84305 116.253 8.26998C117.141 7.68885 118.287 7.39828 119.691 7.39828C120.951 7.39828 122.052 7.65656 122.997 8.17313C123.941 8.68162 124.675 9.45647 125.2 10.4977C125.725 11.5308 125.987 12.8384 125.987 14.4204V26.2368H123.13V14.6141C123.13 13.1532 122.75 12.0151 121.992 11.1999C121.233 10.3766 120.192 9.96497 118.868 9.96497C117.956 9.96497 117.141 10.1627 116.422 10.5582C115.712 10.9537 115.151 11.5308 114.74 12.2895C114.328 13.0482 114.122 13.9684 114.122 15.0499ZM136.681 26.6727C135.502 26.6727 134.433 26.4507 133.472 26.0068C132.512 25.5548 131.749 24.905 131.184 24.0576C130.619 23.202 130.336 22.1689 130.336 20.9582C130.336 19.8927 130.546 19.0291 130.966 18.3672C131.386 17.6973 131.947 17.1727 132.649 16.7933C133.351 16.414 134.126 16.1315 134.973 15.9458C135.829 15.7521 136.689 15.5988 137.552 15.4858C138.682 15.3405 139.598 15.2315 140.301 15.1589C141.011 15.0782 141.527 14.945 141.85 14.7594C142.181 14.5737 142.347 14.2509 142.347 13.7908V13.6939C142.347 12.4994 142.02 11.5712 141.366 10.9093C140.72 10.2475 139.74 9.91654 138.424 9.91654C137.06 9.91654 135.99 10.2152 135.216 10.8125C134.441 11.4097 133.896 12.0474 133.581 12.7254L130.869 11.7568C131.353 10.6268 131.999 9.74704 132.806 9.11747C133.622 8.47984 134.509 8.03591 135.47 7.7857C136.438 7.52742 137.391 7.39828 138.327 7.39828C138.924 7.39828 139.61 7.47092 140.385 7.6162C141.168 7.75341 141.923 8.03995 142.649 8.4758C143.384 8.91165 143.993 9.56947 144.478 10.4492C144.962 11.329 145.204 12.5074 145.204 13.9845V26.2368H142.347V23.7186H142.201C142.008 24.1221 141.685 24.5539 141.233 25.014C140.781 25.4741 140.18 25.8655 139.429 26.1884C138.678 26.5112 137.762 26.6727 136.681 26.6727ZM137.116 24.106C138.246 24.106 139.199 23.884 139.974 23.4401C140.757 22.9962 141.346 22.4231 141.741 21.7209C142.145 21.0187 142.347 20.2802 142.347 19.5053V16.8902C142.226 17.0355 141.959 17.1686 141.548 17.2897C141.144 17.4027 140.676 17.5036 140.143 17.5924C139.619 17.6731 139.106 17.7458 138.606 17.8103C138.113 17.8668 137.714 17.9153 137.407 17.9556C136.664 18.0525 135.97 18.2099 135.325 18.4278C134.687 18.6376 134.17 18.9565 133.775 19.3842C133.387 19.8039 133.194 20.377 133.194 21.1034C133.194 22.0962 133.561 22.8468 134.295 23.3553C135.038 23.8558 135.978 24.106 137.116 24.106Z" fill="black"/>
<defs>
<linearGradient id="paint0_linear_93_2060" x1="0.199147" y1="16.6005" x2="36.9681" y2="16.6005" gradientUnits="userSpaceOnUse">
<stop stop-color="#0069FF"/>
<stop offset="1" stop-color="#29ACE4"/>
</linearGradient>
</defs>
</svg>
