<svg width="459" height="459" viewBox="0 0 459 459" fill="none" xmlns="http://www.w3.org/2000/svg">
<path d="M306 0H459V459H306V0Z" fill="white"/>
<path d="M306 0C326.092 0 345.988 3.95746 364.551 11.6464C383.113 19.3354 399.98 30.6053 414.187 44.8127C428.395 59.02 439.665 75.8866 447.354 94.4494C455.043 113.012 459 132.908 459 153C459 173.092 455.043 192.988 447.354 211.551C439.665 230.113 428.395 246.98 414.187 261.187C399.98 275.395 383.113 286.665 364.551 294.354C345.988 302.043 326.092 306 306 306L306 0Z" fill="#0062EB"/>
<path d="M0 0H306V153H0V0Z" fill="#FBB13C"/>
<path d="M0 0H149.052V153H0V0Z" fill="#010066"/>
<path d="M306 153C306 132.908 302.043 113.012 294.354 94.4494C286.665 75.8866 275.395 59.02 261.187 44.8127C246.98 30.6053 230.113 19.3354 211.551 11.6464C192.988 3.95746 173.092 -8.7826e-07 153 0C132.908 8.7826e-07 113.012 3.95746 94.4494 11.6464C75.8866 19.3354 59.02 30.6053 44.8127 44.8127C30.6053 59.02 19.3354 75.8866 11.6464 94.4494C3.95746 113.012 -1.75652e-06 132.908 0 153H306Z" fill="#0062EB"/>
<path d="M0 153H306V306H0V153Z" fill="white"/>
<path d="M153 306C153 285.908 149.043 266.012 141.354 247.449C133.665 228.886 122.395 212.02 108.187 197.813C93.98 183.605 77.1134 172.335 58.5506 164.646C39.9877 156.957 20.0922 153 0 153V306H153Z" fill="#0062EB"/>
<path d="M153 306C153 285.908 156.957 266.012 164.646 247.449C172.335 228.886 183.605 212.02 197.813 197.813C212.02 183.605 228.887 172.335 247.449 164.646C266.012 156.957 285.908 153 306 153V306H153Z" fill="#0062EB"/>
<path d="M0 306H153V459H0V306Z" fill="white"/>
<path d="M153 459C153 438.908 156.957 419.012 164.646 400.45C172.335 381.887 183.605 365.02 197.813 350.813C212.02 336.605 228.887 325.336 247.449 317.647C266.012 309.958 285.908 306 306 306C326.092 306 345.988 309.958 364.551 317.647C383.113 325.336 399.98 336.605 414.187 350.813C428.395 365.02 439.665 381.887 447.354 400.45C455.043 419.012 459 438.908 459 459L153 459Z" fill="#0062EB"/>
<path d="M0 306C0 326.092 3.95746 345.988 11.6464 364.551C19.3354 383.114 30.6053 399.98 44.8127 414.187C59.02 428.395 75.8866 439.665 94.4494 447.354C113.012 455.043 132.908 459 153 459V306H0Z" fill="#FBB13C"/>
<path d="M153 459C173.092 459 192.988 455.043 211.551 447.354C230.113 439.665 246.98 428.395 261.187 414.187C275.395 399.98 286.665 383.113 294.354 364.551C302.043 345.988 306 326.092 306 306H153V459Z" fill="#010066"/>
</svg>
