<svg width="1215" height="522" viewBox="0 0 1215 522" fill="none" xmlns="http://www.w3.org/2000/svg">
<g clip-path="url(#clip0_142_4605)">
<path d="M1215 522H87.5C39.175 522 0 482.825 0 434.5V347H1215V522Z" fill="#010066"/>
<rect x="1041" y="522" width="176" height="175" transform="rotate(180 1041 522)" fill="#FBB13C"/>
<path d="M1215 173H868C772.455 173 695 95.5453 695 0H1215V173Z" fill="#010066"/>
<path d="M1215 174H1042V1C1137.55 1 1215 78.4547 1215 174Z" fill="#FBB13C"/>
<path d="M690 347H517V520C612.545 520 690 442.545 690 347Z" fill="white"/>
<path d="M865 347C865 369.981 869.527 392.738 878.321 413.97C887.116 435.202 900.006 454.493 916.256 470.744C932.507 486.994 951.798 499.884 973.03 508.679C994.262 517.473 1017.02 522 1040 522C1062.98 522 1085.74 517.473 1106.97 508.679C1128.2 499.884 1147.49 486.994 1163.74 470.744C1179.99 454.493 1192.88 435.202 1201.68 413.97C1210.47 392.738 1215 369.981 1215 347L1040 347H865Z" fill="#0062EB"/>
<path d="M865 172C842.019 172 819.262 176.527 798.03 185.321C776.798 194.116 757.507 207.006 741.256 223.256C725.006 239.507 712.116 258.798 703.321 280.03C694.527 301.262 690 324.019 690 347C690 369.981 694.527 392.738 703.321 413.97C712.116 435.202 725.006 454.493 741.256 470.744C757.507 486.994 776.798 499.884 798.03 508.679C819.262 517.473 842.019 522 865 522L865 347L865 172Z" fill="#0062EB"/>
<path d="M695 0.5C695 23.2843 699.488 45.8456 708.207 66.8956C716.926 87.9456 729.706 107.072 745.817 123.183C761.928 139.294 781.054 152.074 802.104 160.793C823.154 169.512 845.716 174 868.5 174C891.284 174 913.846 169.512 934.896 160.793C955.946 152.074 975.072 139.294 991.183 123.183C1007.29 107.072 1020.07 87.9456 1028.79 66.8956C1037.51 45.8456 1042 23.2843 1042 0.499985L868.5 0.5H695Z" fill="#0062EB"/>
<path d="M1042 173.5C1042 196.284 1046.49 218.846 1055.21 239.896C1063.93 260.946 1076.71 280.072 1092.82 296.183C1108.93 312.294 1128.05 325.074 1149.1 333.793C1170.15 342.512 1192.72 347 1215.5 347V173.5H1042Z" fill="#0062EB"/>
<path d="M1042 172C1042 194.981 1037.41 217.738 1028.49 238.97C1019.57 260.202 1006.49 279.493 990.011 295.744C973.529 311.994 953.962 324.884 932.426 333.679C910.891 342.473 887.81 347 864.5 347L864.5 172H1042Z" fill="#0062EB"/>
<path d="M868 174H1042V1C946.455 1 868 78.4547 868 174Z" fill="#010066"/>
<path d="M343 347H517V520C421.455 520 343 442.545 343 347Z" fill="#FBB13C"/>
<path d="M343 347H169V520C264.545 520 343 442.545 343 347Z" fill="#0062EB"/>
<path d="M-53 200.5C-53.2761 200.5 -53.5 200.724 -53.5 201C-53.5 201.276 -53.2761 201.5 -53 201.5V200.5ZM605.333 201C605.333 202.473 606.527 203.667 608 203.667C609.473 203.667 610.667 202.473 610.667 201C610.667 199.527 609.473 198.333 608 198.333C606.527 198.333 605.333 199.527 605.333 201ZM-53 201.5H608V200.5H-53V201.5Z" fill="url(#paint0_linear_142_4605)"/>
</g>
<defs>
<linearGradient id="paint0_linear_142_4605" x1="452.284" y1="200.5" x2="1.32063" y2="240.587" gradientUnits="userSpaceOnUse">
<stop offset="0.365728"/>
<stop offset="1" stop-color="white"/>
</linearGradient>
<clipPath id="clip0_142_4605">
<rect width="1215" height="522" fill="white"/>
</clipPath>
</defs>
</svg>
